<?xml version="1.0" encoding="utf-8"?>
<!-- Generator: Adobe Illustrator 23.0.3, SVG Export Plug-In . SVG Version: 6.00 Build 0)  -->
<svg version="1.1" id="Camada_1" xmlns="http://www.w3.org/2000/svg" xmlns:xlink="http://www.w3.org/1999/xlink" x="0px" y="0px"
	 viewBox="0 0 538 554" style="enable-background:new 0 0 538 554;" xml:space="preserve">
<style type="text/css">
	.st0{opacity:2.000000e-02;fill-rule:evenodd;clip-rule:evenodd;enable-background:new    ;}
	.st1{opacity:2.000000e-02;}
</style>
<g>
	<path class="st0" d="M403.3,278.6c-10.9,3-22.1,5.7-33.7,7.9v8.4v25.9V355v34.2v43.4v83.8v37.6l33.7-23.1l33.7-23.1l33.7-23.1
		l33.7-23.1v-37.6v-77.1v-37.2v-37.7c-10.5,6.3-21.8,12.1-33.7,17.6c-10.8,4.9-22,9.3-33.7,13.4v35.1c11.6-3.8,22.8-7.9,33.7-12.5
		v35.9V447l-33.8,23.1l-33.7,23.1v-111v-34.5v-34.5v-18.3L403.3,278.6L403.3,278.6z M369.7,185.8c12.1-2.4,23.3-5.2,33.7-8.3v-15
		v-42V82.9v-7.8V42.2c12.1,3.7,23.4,7.9,33.7,12.4c1.6,0.6,3,1.3,4.4,2c11,5.2,20.8,10.8,29.2,16.9c0.2,0.1,0.3,0.2,0.4,0.3
		c21.1,15.3,33.2,33.3,33.2,52.5c0,19.3-12.3,37.4-33.7,52.8c-9.6,6.8-20.9,13.2-33.7,18.9c-10.3,4.5-21.6,8.6-33.7,12.4
		c-10.6,3.2-21.8,6-33.7,8.6c-10.8,2.2-22,4.1-33.7,5.6c-21.2,2.8-43.7,4.2-67,4.2c-23.3,0-45.8-1.4-67-4.2v33.7
		c21.4,2.8,43.9,4.3,67,4.3c23.1,0,45.5-1.5,67-4.3c11.6-1.5,22.8-3.4,33.7-5.6c11.7-2.4,22.9-5.2,33.7-8.4
		c11.8-3.4,23.1-7.3,33.7-11.6c12.2-4.9,23.4-10.3,33.7-16.2c12.9-7.4,24.2-15.5,33.7-24.1c21.5-19.6,33.7-42,33.7-66
		c0-24-12.2-46.5-33.7-66c-1.9-1.7-3.9-3.5-5.9-5.2c-8.1-6.7-17.2-12.9-27.4-18.8l-0.3,0.2v-0.3c-10.3-5.9-21.6-11.4-33.7-16.2
		c-5.6-2.3-11.5-4.4-17.4-6.5c-5.3-1.8-10.7-3.5-16.2-5.2c-10.9-3.1-22.1-5.9-33.8-8.3v13.5v20.3v33.1v16v23.1v37.6v8.5v18.8V185.8z
		 M101,232.6c-12.1-4.9-23.4-10.3-33.7-16.2c-12.9-7.4-24.2-15.5-33.7-24.1C12.2,172.8,0,150.2,0,126.3c0-24,12.2-46.5,33.7-66
		c1.9-1.7,3.9-3.5,6-5.2c8.1-6.7,17.2-12.9,27.4-18.8l0.3,0.2v-0.3c10.3-5.9,21.6-11.4,33.7-16.2c5.7-2.3,11.5-4.4,17.4-6.5
		c5.2-1.8,10.7-3.5,16.2-5.2c10.8-3.1,22-5.9,33.7-8.3v13.5v20.3v33.1v16v23.1v37.6v4.7v138.4c-11.6-2.3-22.8-4.9-33.7-7.9v-120
		v-38.3V82.8v-7.7V42.2c-12.1,3.7-23.3,7.9-33.7,12.4c-1.5,0.6-3,1.3-4.4,2c-11,5.2-20.8,10.8-29.2,16.9c-0.2,0.1-0.3,0.2-0.4,0.3
		c-21.2,15.3-33.2,33.3-33.2,52.5c0,19.3,12.3,37.4,33.7,52.8c9.5,6.8,20.8,13.2,33.7,18.9L101,232.6L101,232.6z M168.3,389.1
		c-11.4-2-22.6-4.3-33.7-6.9v33.9c0,66.1,0,11,0,77.1L101,470.1L67.3,447v-85.7v-35.9c10.9,4.5,22.1,8.6,33.7,12.5v-35.1
		c10.9,3.8,22.1,7.2,33.7,10.3c11,2.9,22.2,5.3,33.7,7.6c11,2,22.2,3.8,33.7,5.2c21.7,2.6,44,4,67,4c22.9,0,45.3-1.4,67-4v33.9
		c-21.8,2.5-44.1,3.9-67,3.9c-22.9,0-45.3-1.4-67-3.9c-11.4-1.3-22.6-3-33.7-5c-11.5-2.2-22.7-4.5-33.7-7.2
		c-11.5-2.9-22.7-6.1-33.7-9.7v-35.1c-11.7-4.1-22.9-8.6-33.7-13.4c-11.8-5.4-23.1-11.3-33.7-17.6v37.7v37.2V424v37.6l33.7,23.1
		l33.7,23.1l33.7,23.1l33.7,23.1v-37.6c0-73.8,0-26.5,0-100.3V389.1z"/>
	<circle class="st1" cx="274" cy="128.3" r="58"/>
</g>
</svg>
