<?xml version="1.0" encoding="utf-8"?>
<!-- Generator: Adobe Illustrator 23.0.3, SVG Export Plug-In . SVG Version: 6.00 Build 0)  -->
<svg version="1.1" id="Camada_1" xmlns="http://www.w3.org/2000/svg" xmlns:xlink="http://www.w3.org/1999/xlink" x="0px" y="0px"
	 viewBox="0 0 82.9 33.8" style="enable-background:new 0 0 82.9 33.8;" xml:space="preserve">
<style type="text/css">
	.st0{fill:#FFFFFF;}
</style>
<path class="st0" d="M25.6,9.2c0.8-1.8,1.7-3.5,2.5-5.2c-7.2-6-18-5.1-24,1.9c-5.8,6.7-5.4,17.2,1.2,23.4c6.3,5.9,16.2,6.1,22.9,0.4
	c-0.8-1.9-1.6-3.7-2.4-5.6c-0.4,0.4-3.7,4.2-9,4c-4.8-0.2-7.6-3.5-8.1-4c-0.4-0.5-3.3-3.9-2.7-8.7c0.6-4.8,4.2-7.3,4.7-7.7
	c0.8-0.5,3.7-2.3,7.8-1.9C22.5,6.2,24.9,8.6,25.6,9.2z"/>
<path class="st0" d="M29.4,0.1c3.2,0,5.3,0,6.6,0c0.5,0,2.2,0,4.6,0c0.9,0,1,0,1,0c1.3,0,6.2,0.4,8.9,4.1c1.8,2.4,1.9,5,2,6.2
	c0.1,1.3,0.2,4.4-1.9,7.4c-1.7,2.3-4,3.3-5.1,3.7c3,4.1,6,8.2,9,12.4c-2.4,0-4.7,0-7.1,0c-2.7-3.8-5.4-7.6-8.1-11.4
	c-1.4,0-2.9,0-4.3,0c0,3.8,0,7.6,0,11.4c-1.9,0-3.9,0-5.8,0c0-5.7,0-11.4,0-17.1c4.3,0,8.7,0,13,0c0.3,0,2.3-0.3,3.6-2.1
	c1.1-1.5,1-3.1,0.9-3.5c0-0.4,0-1.8-1-3C44.8,6.5,43.1,6,42.3,6c-0.1,0-0.4,0-1,0c-0.5,0-0.9,0-1.2,0c-1.1,0-2.3,0-3.4,0
	c-2.5,0-5,0-7.4,0C29.4,4,29.4,2,29.4,0.1z"/>
<path class="st0" d="M55.6,13.9c2,0,4,0,6,0c0,4.5,0,9.1,0,13.6c2.3,0,4.6,0,6.9,0c1.1-0.2,3.7-0.8,5.8-3c4-4.2,2.6-10.2,2.4-10.6
	c-0.3-1-0.8-3.2-2.8-5.2c-2.1-2.1-4.6-2.6-5.6-2.8c-4.2,0-8.5,0-12.7,0c0-1.9,0-3.9,0-5.8c4,0,7.9,0,11.9,0c1.1,0,6.8,0.2,11.1,4.8
	c3.3,3.5,3.9,7.5,4,8.9c0.2,1,1.3,7.6-3.2,13.4c-4.1,5.3-10,6.2-11.1,6.4c-4.3,0-8.5,0-12.8,0C55.6,27.1,55.6,20.5,55.6,13.9z"/>
</svg>
