<?xml version="1.0" encoding="utf-8"?>
<!-- Generator: Adobe Illustrator 23.0.3, SVG Export Plug-In . SVG Version: 6.00 Build 0)  -->
<svg version="1.1" id="Camada_1" xmlns="http://www.w3.org/2000/svg" xmlns:xlink="http://www.w3.org/1999/xlink" x="0px" y="0px"
	 viewBox="0 0 24 24" style="enable-background:new 0 0 24 24;" xml:space="preserve">
<style type="text/css">
	.st0{fill-rule:evenodd;clip-rule:evenodd;fill:#B2B2B2;}
	.st1{display:none;opacity:0.54;fill:#5C3C3C;}
	.st2{display:none;}
	.st3{display:none;opacity:0.54;fill:#785754;}
	.st4{display:none;opacity:0.54;fill:#73B678;}
</style>
<path class="st0" d="M18,12.1c-0.5,0.1-1,0.2-1.5,0.3v0.4v1.1v1.5v1.5v1.9v3.6V24l1.5-1l1.5-1l1.5-1l1.5-1v-1.6V15v-1.6v-1.6
	c-0.5,0.3-1,0.5-1.5,0.8c-0.5,0.2-1,0.4-1.5,0.6v1.5c0.5-0.2,1-0.3,1.5-0.5v1.6v3.7l-1.5,1l-1.5,1v-4.8v-1.5v-1.5v-0.8L18,12.1
	L18,12.1z M16.5,8c0.5-0.1,1-0.2,1.5-0.4V7V5.2V3.6V3.3V1.8c0.5,0.2,1,0.3,1.5,0.5c0.1,0,0.1,0.1,0.2,0.1c0.5,0.2,0.9,0.5,1.3,0.7
	c0,0,0,0,0,0c0.9,0.7,1.5,1.4,1.5,2.3c0,0.8-0.5,1.6-1.5,2.3c-0.4,0.3-0.9,0.6-1.5,0.8C19,8.8,18.5,9,18,9.1c-0.5,0.1-1,0.3-1.5,0.4
	c-0.5,0.1-1,0.2-1.5,0.2C14,9.8,13,9.9,12,9.9s-2-0.1-3-0.2v1.5c1,0.1,2,0.2,3,0.2c1,0,2-0.1,3-0.2c0.5-0.1,1-0.1,1.5-0.2
	c0.5-0.1,1-0.2,1.5-0.4c0.5-0.1,1-0.3,1.5-0.5c0.5-0.2,1-0.4,1.5-0.7c0.6-0.3,1.1-0.7,1.5-1c1-0.8,1.5-1.8,1.5-2.9s-0.5-2-1.5-2.9
	c-0.1-0.1-0.2-0.2-0.3-0.2c-0.4-0.3-0.8-0.6-1.2-0.8l0,0v0c-0.5-0.3-1-0.5-1.5-0.7c-0.2-0.1-0.5-0.2-0.8-0.3
	c-0.2-0.1-0.5-0.2-0.7-0.2c-0.5-0.1-1-0.3-1.5-0.4v0.6v0.9v1.4v0.7v1v1.6v0.4v0.8V8z M4.5,10.1C4,9.9,3.5,9.6,3,9.4
	c-0.6-0.3-1.1-0.7-1.5-1C0.5,7.5,0,6.5,0,5.5c0-1,0.5-2,1.5-2.9c0.1-0.1,0.2-0.2,0.3-0.2C2.1,2.1,2.5,1.8,3,1.6l0,0v0
	c0.5-0.3,1-0.5,1.5-0.7C4.8,0.8,5,0.7,5.3,0.6C5.5,0.5,5.8,0.4,6,0.4C6.5,0.2,7,0.1,7.5,0v0.6v0.9v1.4v0.7v1v1.6v0.2v6
	c-0.5-0.1-1-0.2-1.5-0.3V6.9V5.2V3.6V3.3V1.8C5.5,2,5,2.2,4.5,2.4c-0.1,0-0.1,0.1-0.2,0.1C3.8,2.7,3.4,2.9,3,3.2c0,0,0,0,0,0
	C2,3.9,1.5,4.6,1.5,5.5c0,0.8,0.5,1.6,1.5,2.3c0.4,0.3,0.9,0.6,1.5,0.8L4.5,10.1L4.5,10.1z M7.5,16.9c-0.5-0.1-1-0.2-1.5-0.3V18
	c0,2.9,0,0.5,0,3.3l-1.5-1l-1.5-1v-3.7v-1.6c0.5,0.2,1,0.4,1.5,0.5v-1.5c0.5,0.2,1,0.3,1.5,0.4c0.5,0.1,1,0.2,1.5,0.3
	C8,14,8.5,14.1,9,14.1c1,0.1,2,0.2,3,0.2c1,0,2-0.1,3-0.2v1.5c-1,0.1-2,0.2-3,0.2s-2-0.1-3-0.2c-0.5-0.1-1-0.1-1.5-0.2
	c-0.5-0.1-1-0.2-1.5-0.3c-0.5-0.1-1-0.3-1.5-0.4v-1.5c-0.5-0.2-1-0.4-1.5-0.6c-0.5-0.2-1-0.5-1.5-0.8v1.6V15v3.3V20L3,21l1.5,1L6,23
	l1.5,1v-1.6c0-3.2,0-1.1,0-4.3V16.9z"/>
<path class="st1" d="M-9.5,7.4c0.5-1,1-2,1.4-3C-12.2,1-18.3,1.5-21.7,5.5c-3.3,3.8-3.1,9.8,0.7,13.3c3.6,3.3,9.2,3.5,13,0.2
	c-0.5-1.1-0.9-2.1-1.4-3.2c-0.2,0.3-2.1,2.4-5.1,2.3c-2.7-0.1-4.3-2-4.6-2.3c-0.2-0.3-1.9-2.2-1.5-5c0.4-2.7,2.4-4.1,2.7-4.4
	c0.4-0.3,2.1-1.3,4.4-1.1C-11.3,5.7-9.9,7-9.5,7.4z"/>
<path class="st2" d="M-23.9,11.5"/>
<path class="st3" d="M-7.3,2.2c1.8,0,3,0,3.8,0c0.3,0,1.3,0,2.6,0c0.5,0,0.5,0,0.6,0c0.8,0,3.5,0.2,5.1,2.3c1,1.4,1.1,2.9,1.1,3.5
	c0,0.7,0.1,2.5-1.1,4.2c-1,1.3-2.3,1.9-2.9,2.1c1.7,2.3,3.4,4.7,5.1,7c-1.3,0-2.7,0-4,0c-1.5-2.2-3.1-4.3-4.6-6.5
	c-0.8,0-1.6,0-2.4,0c0,2.2,0,4.3,0,6.5c-1.1,0-2.2,0-3.3,0c0-3.2,0-6.5,0-9.7c2.5,0,4.9,0,7.4,0c0.2,0,1.3-0.2,2-1.2
	c0.6-0.9,0.6-1.8,0.5-2c0-0.3,0-1-0.6-1.7C1.4,5.9,0.5,5.6,0,5.6c-0.1,0-0.2,0-0.6,0c-0.3,0-0.5,0-0.7,0c-0.6,0-1.3,0-1.9,0
	c-1.4,0-2.8,0-4.2,0C-7.3,4.4-7.3,3.3-7.3,2.2z"/>
<path class="st4" d="M7.6,10.1c1.1,0,2.3,0,3.4,0c0,2.6,0,5.2,0,7.7c1.3,0,2.6,0,3.9,0c0.6-0.1,2.1-0.5,3.3-1.7
	c2.3-2.4,1.5-5.8,1.4-6c-0.1-0.6-0.5-1.8-1.6-3c-1.2-1.2-2.6-1.5-3.2-1.6c-2.4,0-4.8,0-7.2,0c0-1.1,0-2.2,0-3.3c2.3,0,4.5,0,6.8,0
	c0.6,0,3.9,0.1,6.3,2.7c1.9,2,2.2,4.3,2.3,5.1c0.1,0.6,0.8,4.3-1.8,7.6c-2.3,3-5.7,3.5-6.3,3.6c-2.4,0-4.8,0-7.3,0
	C7.6,17.5,7.6,13.8,7.6,10.1z"/>
</svg>
